# xmcd CD database file
#
# Track frame offsets:
#	150
#	15210
#	42946
#	70443
#	81978
#	116230
#	131005
#	151676
#	162668
#	189101
#
# Disc length: 3609 seconds
#
# Revision: 0
# Processed by: cddbd v1.5.1PL0 Copyright (c) Steve Scherf et al.
# Submitted via: CDex 1.51
#
DISCID=7c0e170a
DTITLE=John Rabbit Bundrick - Sacred Spirit - Native American Indian Flute
DYEAR=1900
DGENRE=New Age
TTITLE0=Eagels Arise
TTITLE1=reptile
TTITLE2=Thunder Hand
TTITLE3=Wolves Dance
TTITLE4=Land of Dreams
TTITLE5=Dream Maker
TTITLE6=River Spirit
TTITLE7=Locust
TTITLE8=Rain Main
TTITLE9=Feather
EXTD=
EXTT0=
EXTT1=
EXTT2=
EXTT3=
EXTT4=
EXTT5=
EXTT6=
EXTT7=
EXTT8=
EXTT9=
PLAYORDER=
